<svg width="512.001" height="512.001" xmlns="http://www.w3.org/2000/svg" xmlns:svg="http://www.w3.org/2000/svg">
 <g>
  <title>Layer 1</title>
  <g stroke="null" id="svg_26">
   <path stroke="null" id="svg_1" fill="#EE8700" d="m399.181006,158.243457c-3.370877,0 -6.741753,-1.286962 -9.314098,-3.860096l-18.628985,-18.628196c-5.141534,-5.141534 -13.500077,-5.133643 -18.632931,0l-12.41985,12.41985c-5.145479,5.145479 -13.482717,5.145479 -18.628985,0c-5.145479,-5.141534 -5.145479,-13.486663 0,-18.628985l12.41985,-12.41985c15.399351,-15.408031 40.482871,-15.41671 55.890902,0l18.628985,18.628985c5.145479,5.141534 5.145479,13.486663 0,18.628985c-2.573134,2.573923 -5.944011,3.859307 -9.314887,3.859307z"/>
   <g stroke="null" id="svg_2">
    <path stroke="null" id="svg_3" fill="#FFDA44" d="m450.82675,207.731902c-3.370877,0 -6.741753,-1.286962 -9.314098,-3.860096l-8.78227,-8.78227c-5.145479,-5.145479 -5.145479,-13.486663 0,-18.628985c5.145479,-5.145479 13.490608,-5.145479 18.628985,0l8.78227,8.78227c5.145479,5.145479 5.145479,13.486663 0,18.628985c-2.573923,2.573134 -5.9448,3.860096 -9.314887,3.860096z"/>
    <path stroke="null" id="svg_4" fill="#FFDA44" d="m389.348494,207.731902c3.370877,0 6.741753,-1.286962 9.314098,-3.860096l8.78227,-8.78227c5.145479,-5.145479 5.145479,-13.486663 0,-18.628985c-5.145479,-5.145479 -13.490608,-5.145479 -18.628985,0l-8.78227,8.78227c-5.145479,5.145479 -5.145479,13.486663 0,18.628985c2.573134,2.573134 5.944011,3.860096 9.314887,3.860096z"/>
    <path stroke="null" id="svg_5" fill="#FFDA44" d="m450.82675,119.906048c-3.370877,0 -6.741753,1.286962 -9.314098,3.860096l-8.78227,8.78227c-5.145479,5.145479 -5.145479,13.486663 0,18.628985c5.145479,5.145479 13.490608,5.145479 18.628985,0l8.78227,-8.78227c5.145479,-5.145479 5.145479,-13.486663 0,-18.628985c-2.573923,-2.573923 -5.9448,-3.860096 -9.314887,-3.860096z"/>
   </g>
   <path stroke="null" id="svg_6" fill="#5C5C5C" d="m313.95827,224.841942c-0.685696,0 -1.38086,-0.055234 -2.07129,-0.163336c-4.168619,-0.66518 -7.766746,-3.284869 -9.6747,-7.049488c-5.51476,-10.866974 -12.591076,-20.652932 -21.022213,-29.088014c-8.435082,-8.431137 -18.22104,-15.506664 -29.088014,-21.022213c-3.765408,-1.908743 -6.385886,-5.50687 -7.049488,-9.6747c-0.663602,-4.168619 0.712524,-8.400363 3.69676,-11.385388l41.756418,-41.756418c5.145479,-5.145479 13.482717,-5.145479 18.628985,0l55.894847,55.894847c5.145479,5.141534 5.145479,13.486663 0,18.628985l-41.756418,41.756418c-2.487126,2.491861 -5.850112,3.859307 -9.314887,3.859307z"/>
   <path stroke="null" id="svg_7" fill="#3E3D42" d="m302.21228,217.629907c1.908743,3.765408 5.50687,6.385886 9.6747,7.049488c0.69043,0.107313 1.384805,0.163336 2.07129,0.163336c3.464775,0 6.826972,-1.368235 9.314098,-3.860096l41.756418,-41.756418c5.145479,-5.141534 5.145479,-13.486663 0,-18.628985l-27.947029,-27.947029l-55.890902,55.890902c8.430348,8.435871 15.506664,18.221829 21.021424,29.088803z"/>
   <path stroke="null" id="svg_8" fill="#787680" d="m200.453154,409.731999c-37.57912,0 -72.864433,-14.592929 -99.361954,-41.091238c-54.788581,-54.788581 -54.788581,-143.940061 0,-198.727853c26.49831,-26.49831 61.783623,-41.091238 99.361954,-41.091238s72.868379,14.592929 99.366688,41.091238s41.091238,61.787569 41.091238,99.366688s-14.592929,72.864433 -41.091238,99.361954s-61.787569,41.090449 -99.366688,41.090449z"/>
   <path stroke="null" id="svg_9" fill="#57565C" d="m200.453154,409.731999c37.57912,0 72.868379,-14.592929 99.366688,-41.091238s41.091238,-61.782834 41.091238,-99.361954s-14.592929,-72.868379 -41.091238,-99.366688l-198.728642,198.728642c26.49831,26.49831 61.783623,41.091238 99.361954,41.091238z"/>
   <path stroke="null" id="svg_10" fill="#ACABB1" d="m200.521802,357.036013c-23.432011,0 -45.478428,-9.142872 -62.078733,-25.747122c-5.145479,-5.141534 -5.145479,-13.486663 0,-18.628985c5.145479,-5.145479 13.482717,-5.145479 18.628985,0c11.625263,11.625263 27.060122,18.02772 43.450536,18.02772s31.823695,-6.402456 43.450536,-18.02772c5.145479,-5.145479 13.482717,-5.145479 18.628985,0c5.145479,5.141534 5.145479,13.486663 0,18.628985c-16.601883,16.60425 -38.6483,25.747122 -62.080311,25.747122z"/>
   <g stroke="null" id="svg_11"/>
   <g stroke="null" id="svg_12"/>
   <g stroke="null" id="svg_13"/>
   <g stroke="null" id="svg_14"/>
   <g stroke="null" id="svg_15"/>
   <g stroke="null" id="svg_16"/>
   <g stroke="null" id="svg_17"/>
   <g stroke="null" id="svg_18"/>
   <g stroke="null" id="svg_19"/>
   <g stroke="null" id="svg_20"/>
   <g stroke="null" id="svg_21"/>
   <g stroke="null" id="svg_22"/>
   <g stroke="null" id="svg_23"/>
   <g stroke="null" id="svg_24"/>
   <g stroke="null" id="svg_25"/>
  </g>
 </g>
</svg>