<svg xmlns="http://www.w3.org/2000/svg" xmlns:xlink="http://www.w3.org/1999/xlink" version="1.1" style="enable-background:new 0 0 511.996 511.996;" xml:space="preserve" width="511.996" height="511.996"><rect id="backgroundrect" width="100%" height="100%" x="0" y="0" fill="none" stroke="none"/>





















<g class="currentLayer" style=""><title>Layer 1</title><g class=""><circle style="fill:#F09EA0;" cx="261.4515520746419" cy="252.71536795743464" r="117.93199920654297" id="svg_1" class=""/><path style="fill:#EF8990;" d="M348.2484049299579,169.37755725084455 c25.234526121254557,46.20825483947247 18.57932501220874,105.6194214192233 -19.97016845880023,144.86104335532255 c-46.59782059247767,47.43274028919266 -122.14618447970706,47.43274028919266 -168.74324421690758,0 c-0.8240062651305162,-0.8395586511680496 -1.6297520036099398,-1.6899603107460184 -2.4256066234866895,-2.547332475730364 c5.267401083562844,9.645630481224066 11.923363047885791,18.7165815167224 19.97092931407736,26.908474370416553 c46.59782059247767,47.43274028919266 122.14618447970706,47.43274028919266 168.74324421690758,0 C391.5958517785413,292.0065608628287 392.4023583722979,216.97758966979026 348.2484049299579,169.37755725084455 z" id="svg_2" class=""/><path style="fill:#F9DE8F;" d="M171.63411287115275,205.1563870011759 c10.155896239115538,7.580037379134408 2.2315885278188388,26.512704563454488 12.562481480674004,34.36149365103476 c10.397848217242501,7.898357126025616 26.24189850817312,-5.340181641885333 37.12669410277806,2.7324381192997036 c10.62001795816412,7.876671109205777 3.3454806535354367,26.265638871828465 14.250058485345734,34.48463924654741 c10.807188356337809,8.145422817651637 26.308853772560457,-3.61536880410743 36.062257570074834,4.2101852654515834 c9.55862484656941,7.668330447615182 1.2226944303460194,24.224829788961483 10.783601842746815,31.897032739580204 c9.821119917178851,7.88054361220932 25.826471526860782,-3.807444953083147 36.062257570074834,4.2101852654515834 c10.071441303354236,7.888288618216405 2.1090908282010985,25.100789968362832 11.940101863982624,32.75982640876953 l1.2181292986832466,1.14006488424296 c4.960015551602801,-3.681201355167655 9.705469915055271,-7.79612304673209 14.181581510404138,-12.352510080700387 c7.632139284879228,-7.7690155257072915 14.00658479666451,-16.333443168342242 19.138553640898422,-25.42530572005971 c-9.818076496070338,-7.6621344428095135 -0.4237963893607549,-24.867665287549563 -10.492194271606474,-32.754404904564545 c-10.23578604321406,-8.01763021853473 -26.24189850817312,3.670358346757736 -36.062257570074834,-4.2101852654515834 c-9.561668267677923,-7.6722029506187255 -1.2264987067316633,-24.22870229196503 -10.783601842746815,-31.897032739580204 c-9.753403797514391,-7.824779568958304 -25.255069213737038,3.935237552200055 -36.062257570074834,-4.2101852654515834 c-10.906099542364556,-8.219000374718949 -3.630801382458745,-26.607968137341636 -14.250819340622863,-34.48463924654741 c-10.885556449882078,-8.074168762386453 -26.728085030258438,5.164370005524495 -37.12593324750094,-2.7324381192997036 c-10.332414663409423,-7.84801458697956 -2.4065852415584685,-26.78068177129964 -12.562481480674004,-34.36149365103476 c-10.121657751644738,-7.553704358710318 -19.776911218409506,6.041879186127263 -30.541491679228102,-1.693832813749561 c-11.046857768633387,11.246523222888602 -19.471047397003723,24.149703230692754 -25.279416582605162,37.92264741309259 C158.88217842647367,203.22788050541166 166.02204434705055,200.96711325194343 171.63411287115275,205.1563870011759 z" id="svg_3" class=""/><path style="fill:#F7CF6D;" d="M364.96211280264686,313.17521128139424 c-9.818076496070338,-7.6621344428095135 -0.4237963893607549,-24.867665287549563 -10.492194271606474,-32.754404904564545 c-0.6862914599701994,-0.5375034168917219 -1.400734565194164,-0.9805177604970016 -2.1349599076234784,-1.3522780488370978 c-5.747500763431133,12.737436879252527 -13.750176568272096,24.677912640375975 -24.057483007536266,35.170072278174466 c-2.1737635267570488,2.212748216224278 -4.410678041515789,4.32248785255432 -6.704656702059192,6.328444408389419 c5.206532661392539,8.693769242953277 0.2990161239116281,22.5836630160601 8.851029438839605,29.246691683955607 l1.2181292986832466,1.14006488424296 l0.0007608552771288249,-0.0007745006007085341 C352.02452967034833,336.163938111625 363.05160520177645,316.5597789064905 364.96211280264686,313.17521128139424 z" id="svg_4" class=""/><g id="svg_5" class="">
	<path style="fill:#F9DE8F;" d="M345.82355916174845,166.8309992757149 c4.591000742195319,4.673336624675285 8.723205752281961,9.637885475216981 12.40954956997111,14.827039499964146 l92.1388132050234,-29.776450094840243 c4.308723434380528,-1.3917775794732334 6.198687942768524,-6.524393060368677 3.8423191495005575,-10.45033660536023 c-3.3325461138242463,-5.554718308281595 -8.47821035304648,-13.140177191620964 -14.965262445846829,-19.59176719552304 c-11.833582125184591,-11.769311128366862 -35.36303157039346,-14.011490367418064 -35.36303157039346,-14.011490367418064 s-3.7403645423652963,-23.887147527052562 -14.558965727860038,-37.081539760723125 c-6.598136963261156,-8.046286740760944 -13.48235551072275,-12.748279887662447 -18.52834770864111,-15.398620943287046 c-3.8514494128261045,-2.022995569050687 -8.561143578253523,-0.06660705166093392 -9.872097220746483,4.138931210186398 l-29.563792648117563,94.79112852071731 C336.42319221282185,158.0078884324433 341.2637534859154,162.18941717566867 345.82355916174845,166.8309992757149 z" id="svg_6"/>
	<path style="fill:#F9DE8F;" d="M177.08031494484086,338.60129150205466 c-4.5430668597362045,-4.6245430868306485 -8.63875081652066,-9.533327894121326 -12.295421278401788,-14.664394373815357 L72.53119131456924,353.74974875131284 c-4.308723434380528,1.3917775794732334 -6.198687942768524,6.524393060368677 -3.8423191495005575,10.45033660536023 c3.3325461138242463,5.554718308281595 8.47821035304648,13.140177191620964 14.965262445846829,19.59176719552304 c11.833582125184591,11.769311128366862 35.36303157039346,14.011490367418064 35.36303157039346,14.011490367418064 s3.7403645423652963,23.887147527052562 14.558965727860038,37.081539760723125 c6.598136963261156,8.046286740760944 13.48235551072275,12.748279887662447 18.527586853363978,15.398620943287046 c3.8514494128261045,2.022995569050687 8.561143578253523,0.06660705166093392 9.872097220746483,-4.138931210186398 l29.614769951685194,-94.95377364686608 C186.513398670684,347.45073536575035 181.6553377262165,343.25758911351437 177.08031494484086,338.60129150205466 z" id="svg_7"/>
</g><g id="svg_8" class="">
	<path style="fill:#F7CF6D;" d="M167.5178858218858,371.16207125644206 c-4.648064887979982,14.902940558833585 -20.843630316944118,15.72391119558463 -33.56436969526091,6.958887897366165 c-19.610283912718298,-13.512711980561768 -46.985856783813354,-15.80755726046115 -52.77140031110094,-27.167932071653908 l-8.650924500954721,2.7959471685578032 c-4.308723434380528,1.3917775794732334 -6.198687942768524,6.524393060368677 -3.8423191495005575,10.45033660536023 c3.3325461138242463,5.554718308281595 8.47821035304648,13.140177191620964 14.965262445846829,19.59176719552304 c11.833582125184591,11.769311128366862 35.36303157039346,14.011490367418064 35.36303157039346,14.011490367418064 s3.7403645423652963,23.887147527052562 14.558965727860038,37.081539760723125 c6.598136963261156,8.046286740760944 13.48235551072275,12.748279887662447 18.527586853363978,15.398620943287046 c3.8514494128261045,2.022995569050687 8.561143578253523,0.06660705166093392 9.872097220746483,-4.138931210186398 l29.614769951685194,-94.95377364686608 c-4.912842524420812,-3.6207903083123893 -9.613406426522683,-7.6722029506187255 -14.056801244955013,-12.148041922113334 L167.5178858218858,371.16207125644206 z" id="svg_9"/>
	<path style="fill:#F7CF6D;" d="M358.2338695869967,181.65726427507835 l92.68130301761623,-29.952261731201087 c0.9366128461455824,-0.30282973487703696 0.6474878408366294,-1.7224893359757771 -0.33173290082816737,-1.6194807560815416 L340.3925741936029,161.6666292701904 C342.2384090959174,163.32638405750876 350.5035799713678,170.68413976423983 358.2338695869967,181.65726427507835 z" id="svg_10"/>
</g><g id="svg_11" class="">
</g><g id="svg_12" class="">
</g><g id="svg_13" class="">
</g><g id="svg_14" class="">
</g><g id="svg_15" class="">
</g><g id="svg_16" class="">
</g><g id="svg_17" class="">
</g><g id="svg_18" class="">
</g><g id="svg_19" class="">
</g><g id="svg_20" class="">
</g><g id="svg_21" class="">
</g><g id="svg_22" class="">
</g><g id="svg_23" class="">
</g><g id="svg_24" class="">
</g><g id="svg_25" class="">
</g></g></g></svg>