<svg width="512" height="512" xmlns="http://www.w3.org/2000/svg" xmlns:svg="http://www.w3.org/2000/svg">
 <g>
  <title>Layer 1</title>
  <g stroke="null" id="svg_30">
   <path stroke="null" id="svg_1" fill="#95D5A7" d="m461,221.93286c0,-48.75843 -39.52625,-88.285484 -88.285484,-88.285484l0,-0.980914c0,-32.506156 -26.351102,-58.857258 -58.857258,-58.857258s-58.857258,26.351102 -58.857258,58.857258c0,-32.506156 -26.351102,-58.857258 -58.857258,-58.857258s-58.857258,26.351102 -58.857258,58.857258l0,0.980914c-48.759234,0 -88.285484,39.527859 -88.285484,88.285484c0,47.314016 37.221625,85.934188 83.980406,88.180875c0.008852,0.034602 0.016898,0.070008 0.024141,0.104609c2.853422,13.080195 5.706039,26.157977 8.56107,39.238172c12.132273,48.759234 52.378719,88.285484 89.891641,88.285484c15.69543,0 31.390859,0 47.085484,0c37.511312,-0.001609 77.760172,-39.527859 89.891641,-88.285484c2.852617,-13.080195 5.706844,-26.157977 8.56107,-39.238172c0.008852,-0.035406 0.016094,-0.070812 0.024141,-0.104609c46.758781,-2.245883 83.980406,-40.866055 83.980406,-88.180875z"/>
   <path stroke="null" id="svg_2" fill="#80CB93" d="m372.714516,132.666462l0,-0.980914c0,-32.506156 -26.351102,-58.857258 -58.857258,-58.857258s-58.857258,26.351102 -58.857258,58.857258l0,305.076344c7.847313,0 15.69543,0 23.542742,0c37.511312,-0.001609 77.760172,-39.527859 89.891641,-88.285484c2.852617,-13.080195 5.706844,-26.157977 8.56107,-39.238172c0.008852,-0.035406 0.016094,-0.070813 0.024141,-0.104609c46.758781,-2.246688 83.980406,-40.866859 83.980406,-88.18168c0,-48.757625 -39.52625,-88.285484 -88.285484,-88.285484z"/>
   <path stroke="null" id="svg_3" fill="#58575D" d="m196.142742,152.285548l-0.004023,0c-10.815,0 -19.615063,-8.800867 -19.615063,-19.619086c0.004023,-10.819828 8.804891,-19.619086 19.619086,-19.619086c10.818219,0 19.619086,8.800867 19.619086,19.619086s-8.800867,19.619086 -19.619086,19.619086z"/>
   <path stroke="null" id="svg_4" fill="#454449" d="m313.857258,152.285548l-0.004023,0c-10.815,0 -19.615062,-8.800867 -19.615062,-19.619086c0.004023,-10.819828 8.804891,-19.619086 19.619086,-19.619086c10.818219,0 19.619086,8.800867 19.619086,19.619086s-8.800867,19.619086 -19.619086,19.619086z"/>
   <g stroke="null" id="svg_5">
    <path stroke="null" id="svg_6" fill="#80CB93" d="m308.523789,232.008352c-16.078461,-9.799484 -34.586273,-14.980063 -53.523789,-14.980063c-18.937516,0 -37.444523,5.180578 -53.523789,14.980063l-15.317227,-25.127172c20.694148,-12.614281 44.500023,-19.281922 68.841016,-19.281922s48.146867,6.667641 68.841016,19.281922l-15.317227,25.127172z"/>
    <path stroke="null" id="svg_7" fill="#80CB93" d="m286.32407,282.870235c-9.830867,-4.635 -20.370664,-6.984687 -31.32407,-6.984687c-10.953406,0 -21.492398,2.349687 -31.32407,6.984687l-12.549102,-26.618258c13.786711,-6.499461 28.547898,-9.794656 43.873172,-9.794656c15.325273,0 30.086461,3.295195 43.873172,9.794656l-12.549102,26.618258z"/>
   </g>
   <rect stroke="null" id="svg_8" fill="#F8F8F9" height="39.238172" width="29.428227" y="359.266462" x="210.857258"/>
   <rect stroke="null" id="svg_9" fill="#EDEDED" height="39.238172" width="29.428227" y="359.266462" x="269.714516"/>
   <g stroke="null" id="svg_10">
    <path stroke="null" id="svg_11" fill="#6DC180" d="m323.841016,206.881181c-20.694148,-12.614281 -44.500023,-19.281922 -68.841016,-19.281922l0,29.428227c18.937516,0 37.445328,5.180578 53.523789,14.980063l15.317227,-25.126367z"/>
    <path stroke="null" id="svg_12" fill="#6DC180" d="m286.32407,282.870235l12.549102,-26.618258c-13.785906,-6.499461 -28.547898,-9.794656 -43.873172,-9.794656l0,29.428227c10.953406,0 21.492398,2.349687 31.32407,6.984687z"/>
   </g>
   <path stroke="null" id="svg_13" fill="#477E48" d="m266.773383,383.790118l-23.545156,0c-25.494109,-0.003219 -51.508852,-24.29432 -59.224195,-55.302148l-0.098172,-0.419242l-4.400836,-20.237086c-3.094023,-17.80532 -12.649687,-36.274508 -26.219133,-50.670367c-11.927078,-12.652906 -25.576188,-20.514703 -35.620297,-20.514703l0,-29.428227c18.420906,0 39.210008,10.847188 57.035445,29.758953c17.344234,18.400789 29.629398,42.253336 33.740547,65.49593l4.167477,19.103281c4.754094,18.777383 20.052813,32.784578 30.620773,32.785383l23.541133,0c10.564742,-0.000805 25.86507,-14.008 30.618359,-32.785383l4.167477,-19.103281c4.111148,-23.241789 16.397922,-47.095141 33.740547,-65.49593c17.826242,-18.911766 38.614539,-29.758953 57.035445,-29.758953l0,29.428227c-10.044109,0 -23.693219,7.860992 -35.619492,20.514703c-13.569445,14.396664 -23.125109,32.865047 -26.219938,50.670367l-0.120703,0.618805l-4.378305,20.036719c-7.713734,31.008633 -33.729281,55.300539 -59.220977,55.302953z"/>
   <path stroke="null" id="svg_14" fill="#417242" d="m335.298156,236.978102c-17.344234,18.400789 -29.629398,42.253336 -33.740547,65.49593l-4.167477,19.103281c-4.754094,18.776578 -20.053617,32.783773 -30.618359,32.784578l-11.771773,0l0,29.428227l11.773383,0c25.491695,-0.003219 51.507242,-24.29432 59.221781,-55.302148l4.378305,-20.036719l0.120703,-0.618805c3.094023,-17.80532 12.650492,-36.274508 26.219937,-50.670367c11.926273,-12.652906 25.575383,-20.514703 35.619492,-20.514703l0,-29.428227c-18.421711,0 -39.210008,10.847188 -57.035445,29.758953z"/>
   <g stroke="null" id="svg_15"/>
   <g stroke="null" id="svg_16"/>
   <g stroke="null" id="svg_17"/>
   <g stroke="null" id="svg_18"/>
   <g stroke="null" id="svg_19"/>
   <g stroke="null" id="svg_20"/>
   <g stroke="null" id="svg_21"/>
   <g stroke="null" id="svg_22"/>
   <g stroke="null" id="svg_23"/>
   <g stroke="null" id="svg_24"/>
   <g stroke="null" id="svg_25"/>
   <g stroke="null" id="svg_26"/>
   <g stroke="null" id="svg_27"/>
   <g stroke="null" id="svg_28"/>
   <g stroke="null" id="svg_29"/>
  </g>
 </g>
</svg>