<svg width="370.018" height="370.018" xmlns="http://www.w3.org/2000/svg" xmlns:svg="http://www.w3.org/2000/svg">
 <g>
  <title>Layer 1</title>
  <g stroke="null" id="svg_1">
   <path stroke="null" id="svg_2" fill="#EAB355" d="m266.319687,111.605003c-4.841168,-41.41293 -39.012077,-73.605003 -80.311459,-73.605003s-75.470291,32.192073 -80.311459,73.605003c-13.75773,4.761518 -23.70277,18.222455 -23.70277,34.041825c0,19.785177 15.553522,35.88201 34.670896,35.88201l5.530672,0l53.016333,143.792747c1.708738,4.634746 6.004465,7.695608 10.797098,7.695608s9.08836,-3.061659 10.797098,-7.695608l53.015563,-143.792747l5.530672,0c19.117374,0 34.670896,-16.096036 34.670896,-35.88201c-0.001541,-15.818574 -9.945811,-29.280307 -23.70354,-34.041825z"/>
   <path stroke="null" id="svg_3" fill="#DA8CBA" d="m266.319687,111.605003c-4.841168,-41.41293 -39.012077,-73.605003 -80.311459,-73.605003s-75.470291,32.192073 -80.311459,73.605003c-13.75773,4.761518 -23.70277,18.222455 -23.70277,34.041825c0,19.785177 15.553522,35.88201 34.670896,35.88201l5.530672,0l12.368706,0l12.368706,0l39.07602,0l39.07602,0l12.368706,0l12.368706,0l5.530672,0c19.117374,0 34.670896,-16.096036 34.670896,-35.88201c-0.002311,-15.818574 -9.946581,-29.280307 -23.704311,-34.041825z"/>
   <path stroke="null" id="svg_4" fill="#EAB355" d="m237.452183,181.529636l-12.368706,0l-39.07602,0l-39.07602,0l-12.368706,0l-12.368706,0l53.016333,143.792747c1.708738,4.634746 6.004465,7.695608 10.797098,7.695608s9.08836,-3.061659 10.797098,-7.695608l53.015563,-143.792747l-12.367935,0l0,0z"/>
   <path stroke="null" id="svg_5" fill="#D271A8" d="m146.932209,181.529636l39.07602,0l0,-143.529636c-41.300152,0 -75.470291,32.192073 -80.311459,73.605003c-13.75773,4.761518 -23.70277,18.222455 -23.70277,34.041825c0,19.785177 15.553522,35.88201 34.670896,35.88201l5.530672,0l12.368706,0l12.367935,0l0,0.000797z"/>
   <path stroke="null" id="svg_6" fill="#E29229" d="m146.932209,181.529636l-12.368706,0l-12.368706,0l53.016333,143.792747c1.708738,4.634746 6.004465,7.695608 10.797098,7.695608l0,-151.488355l-39.07602,0l0,0z"/>
  </g>
  <g id="svg_7"/>
  <g id="svg_8"/>
  <g id="svg_9"/>
  <g id="svg_10"/>
  <g id="svg_11"/>
  <g id="svg_12"/>
  <g id="svg_13"/>
  <g id="svg_14"/>
  <g id="svg_15"/>
  <g id="svg_16"/>
  <g id="svg_17"/>
  <g id="svg_18"/>
  <g id="svg_19"/>
  <g id="svg_20"/>
  <g id="svg_21"/>
 </g>
</svg>