<svg width="90" height="90" xmlns="http://www.w3.org/2000/svg">

 <g>
  <title>background</title>
  <rect fill="none" id="canvas_background" height="92" width="92" y="-1" x="-1"/>
 </g>
 <g>
  <title>Layer 1</title>
  <g id="Body">
   <g id="svg_1">
    <path id="svg_2" fill="#735538" d="m65.270126,47.744059c0,-10.81 -5.997,-15.997 -6,-16l-28,0c-0.004,0.003 -6,5.19 -6,16c0,14.251 12,15.563 12,20.001c0,4.999 -6,5.187 -6,9.999c0,0 5,-2 8,-2c1.938,0 2.125,2 6,2s4.063,-2 6,-2c3,0 8,2 8,2c0,-4.813 -6,-5 -6,-9.999c0,-4.438 12,-5.75 12,-20.001z"/>
   </g>
  </g>
  <g id="Brench">
   <g id="svg_3">
    <path id="svg_4" fill="#4D4D4D" d="m73.270126,59.745059l-56,0c-2.209,0 -4,1.79 -4,3.999c0,2.21 1.791,4.001 4,4.001l56,0c2.209,0 4,-1.791 4,-4.001c0,-2.209 -1.791,-3.999 -4,-3.999z"/>
   </g>
  </g>
  <g id="Claws">
   <g id="svg_5">
    <path id="svg_6" fill-rule="evenodd" clip-rule="evenodd" fill="#BF8D5E" d="m41.270126,57.744059c-1.104,0 -2,0.896 -2,2.001c0,-1.105 -0.896,-2.001 -2,-2.001s-2,0.896 -2,2.001l0,3.999c0,1.104 0.896,2 2,2s2,-0.896 2,-2c0,1.104 0.896,2 2,2s2,-0.896 2,-2l0,-3.999c0,-1.105 -0.896,-2.001 -2,-2.001zm12,0c-1.104,0 -2,0.896 -2,2.001c0,-1.105 -0.896,-2.001 -2,-2.001s-2,0.896 -2,2.001l0,3.999c0,1.104 0.896,2 2,2s2,-0.896 2,-2c0,1.104 0.896,2 2,2s2,-0.896 2,-2l0,-3.999c0,-1.105 -0.896,-2.001 -2,-2.001z"/>
   </g>
  </g>
  <g id="Head">
   <g id="svg_7">
    <path id="svg_8" fill-rule="evenodd" clip-rule="evenodd" fill="#A67A51" d="m60.408126,22.114059c0.45,-2.634 0.862,-5.753 0.862,-8.37c-2.253,0 -5.139,3.697 -6.756,6.064c-0.409,-0.042 -0.824,-0.064 -1.244,-0.064c-3.078,0 -5.876,1.169 -8,3.073c-2.124,-1.904 -4.922,-3.073 -8,-3.073c-0.42,0 -0.835,0.022 -1.244,0.064c-1.617,-2.367 -4.503,-6.064 -6.756,-6.064c0,2.617 0.412,5.736 0.862,8.369c-2.945,2.187 -4.862,5.681 -4.862,9.631c0,6.628 5.372,12 12,12c3.078,0 5.876,-1.169 8,-3.073c2.124,1.904 4.922,3.073 8,3.073c6.627,0 12,-5.372 12,-12c0,-3.95 -1.917,-7.443 -4.862,-9.63z"/>
   </g>
  </g>
  <g id="Face">
   <g id="svg_9">
    <path id="svg_10" fill-rule="evenodd" clip-rule="evenodd" fill="#E6E6E6" d="m53.270126,23.744059c-4.418,0 -8,3.582 -8,8c0,-4.418 -3.582,-8 -8,-8s-8,3.582 -8,8c0,4.419 3.582,8.001 8,8.001c1.933,0 3.705,-0.686 5.088,-1.826l2.912,5.825l2.912,-5.825c1.383,1.141 3.155,1.826 5.088,1.826c4.418,0 8,-3.582 8,-8.001c0,-4.418 -3.582,-8 -8,-8z"/>
   </g>
  </g>
  <g id="Eyes">
   <g id="svg_11">
    <path id="svg_12" fill-rule="evenodd" clip-rule="evenodd" fill="#4D4D4D" d="m37.270126,27.744059c-2.209,0 -4,1.791 -4,4s1.791,4 4,4s4,-1.791 4,-4s-1.791,-4 -4,-4zm16,0c-2.209,0 -4,1.791 -4,4s1.791,4 4,4s4,-1.791 4,-4s-1.791,-4 -4,-4z"/>
   </g>
  </g>
  <g id="svg_13"/>
  <g id="svg_14"/>
  <g id="svg_15"/>
  <g id="svg_16"/>
  <g id="svg_17"/>
  <g id="svg_18"/>
  <g id="svg_19"/>
  <g id="svg_20"/>
  <g id="svg_21"/>
  <g id="svg_22"/>
  <g id="svg_23"/>
  <g id="svg_24"/>
  <g id="svg_25"/>
  <g id="svg_26"/>
  <g id="svg_27"/>
 </g>
</svg>