<svg width="90" height="90" xmlns="http://www.w3.org/2000/svg">

 <g>
  <title>background</title>
  <rect fill="none" id="canvas_background" height="92" width="92" y="-1" x="-1"/>
 </g>
 <g>
  <title>Layer 1</title>
  <g id="Ears">
   <g id="svg_1">
    <path id="svg_2" fill-rule="evenodd" clip-rule="evenodd" fill="#75A64B" d="m22.81,16.056c-2.688,1.817 -3.608,5.841 -2.057,8.987c1.552,3.147 6.861,8.023 9.55,6.207c2.688,-1.817 1.735,-9.64 0.184,-12.786c-1.553,-3.147 -4.99,-4.225 -7.677,-2.408zm31.501,-5.047c-3.312,0.18 -6.146,3.099 -6.333,6.518c-0.186,3.42 2.123,10.172 5.434,9.991c3.312,-0.18 6.371,-7.226 6.558,-10.645c0.184,-3.419 -2.349,-6.045 -5.659,-5.864z"/>
   </g>
  </g>
  <g id="Head_2_">
   <g id="svg_3">
    <ellipse id="svg_4" fill="#88C057" ry="26.839" rx="32" cy="48.188" cx="46"/>
   </g>
  </g>
  <g id="Mouth">
   <g id="svg_5">
    <path id="svg_6" fill="#638C3F" d="m46,58.51c-8.837,0 -16,-1.356 -16,2.064s7.163,6.193 16,6.193c8.836,0 16,-2.772 16,-6.193s-7.164,-2.064 -16,-2.064z"/>
   </g>
  </g>
  <g id="Eye_balls">
   <g id="svg_7">
    <path id="svg_8" fill-rule="evenodd" clip-rule="evenodd" fill="#FFFFFF" d="m26,37.864c-3.313,0 -6,2.773 -6,6.193c0,3.421 2.687,6.194 6,6.194s6,-2.773 6,-6.194c0,-3.419 -2.687,-6.193 -6,-6.193zm40,0c-3.313,0 -6,2.773 -6,6.193c0,3.421 2.687,6.194 6,6.194s6,-2.773 6,-6.194c0,-3.419 -2.687,-6.193 -6,-6.193z"/>
   </g>
  </g>
  <g id="Eyes_1_">
   <g id="svg_9">
    <path id="svg_10" fill-rule="evenodd" clip-rule="evenodd" fill="#4D4D4D" d="m28,41.994c-1.104,0 -2,0.924 -2,2.063c0,1.141 0.896,2.065 2,2.065s2,-0.925 2,-2.065c0,-1.139 -0.896,-2.063 -2,-2.063zm40,0c-1.104,0 -2,0.924 -2,2.063c0,1.141 0.896,2.065 2,2.065s2,-0.925 2,-2.065c0,-1.139 -0.896,-2.063 -2,-2.063z"/>
   </g>
  </g>
  <g id="Nose">
   <g id="svg_11">
    <ellipse id="svg_12" fill="#ABF26D" ry="12.387" rx="14" cy="50.251" cx="46"/>
   </g>
  </g>
  <g id="Nose_Holes">
   <g id="svg_13">
    <path id="svg_14" fill-rule="evenodd" clip-rule="evenodd" fill="#3F5928" d="m40,46.123c-1.104,0 -2,1.849 -2,4.129s0.896,4.129 2,4.129s2,-1.849 2,-4.129s-0.896,-4.129 -2,-4.129zm12,0c-1.104,0 -2,1.849 -2,4.129s0.896,4.129 2,4.129s2,-1.849 2,-4.129s-0.896,-4.129 -2,-4.129z"/>
   </g>
  </g>
  <g id="Eyebrows">
   <g id="svg_15">
    <path id="svg_16" fill-rule="evenodd" clip-rule="evenodd" fill="#638C3F" d="m30,29.606l-8,0c-1.104,0 -2,0.925 -2,2.064c0,1.141 0.896,2.064 2,2.064l8,0c1.104,0 2,-0.924 2,-2.064c0,-1.139 -0.896,-2.064 -2,-2.064zm40,0l-8,0c-1.104,0 -2,0.925 -2,2.064c0,1.141 0.896,2.064 2,2.064l8,0c1.104,0 2,-0.924 2,-2.064c0,-1.139 -0.896,-2.064 -2,-2.064z"/>
   </g>
  </g>
  <g id="svg_17"/>
  <g id="svg_18"/>
  <g id="svg_19"/>
  <g id="svg_20"/>
  <g id="svg_21"/>
  <g id="svg_22"/>
  <g id="svg_23"/>
  <g id="svg_24"/>
  <g id="svg_25"/>
  <g id="svg_26"/>
  <g id="svg_27"/>
  <g id="svg_28"/>
  <g id="svg_29"/>
  <g id="svg_30"/>
  <g id="svg_31"/>
 </g>
</svg>