<svg width="90" height="90" xmlns="http://www.w3.org/2000/svg">

 <g>
  <title>background</title>
  <rect fill="none" id="canvas_background" height="92" width="92" y="-1" x="-1"/>
 </g>
 <g>
  <title>Layer 1</title>
  <g id="Legs">
   <g id="svg_1">
    <path id="svg_2" fill-rule="evenodd" clip-rule="evenodd" fill="#CCCCCC" d="m51,49.013l-6,6l-4,4l0,6l-6,10l4,2l14,-14l-2,-14zm-10,-10l-14,-2l-14,14l2,4l10,-6l6,0l4,-4l6,-6z"/>
   </g>
  </g>
  <g id="Flames">
   <g id="svg_3">
    <path id="svg_4" fill="#FFCC66" d="m23,57.013c-3.939,5.748 -9.974,12.835 -10,16c-0.021,2.403 1.576,4.021 4,4c3.217,-0.027 10.011,-6.031 16,-10l-10,-10z"/>
   </g>
  </g>
  <g id="Flames_1_">
   <g id="svg_5">
    <path id="svg_6" fill="#ED7161" d="m29,55.013c-3.939,5.748 -12,12.835 -12,16c0,2.091 0.201,2 2,2c3.217,0 10.011,-8.031 16,-12l-6,-6z"/>
   </g>
  </g>
  <g id="Body_2_">
   <g id="svg_7">
    <path id="svg_8" fill="#387AA7" d="m73,13.013c-6.286,0.389 -17.138,1.137 -30,14c-9.461,9.461 -17.761,23.218 -21.652,32.347l9.367,9.367c9.078,-3.853 22.744,-12.174 32.285,-21.714c12.779,-12.779 13.507,-23.669 14,-30c0.22,-2.826 -1.386,-4.162 -4,-4z"/>
   </g>
  </g>
  <g id="Body_3_">
   <g id="svg_9">
    <path id="svg_10" fill="#48A0DC" d="m73,13.013c-6.286,0.389 -17.138,1.137 -30,14c-7.724,7.723 -14.664,18.307 -19.078,26.905l12.235,12.235c8.546,-4.402 19.065,-11.362 26.843,-19.14c12.779,-12.779 13.507,-23.669 14,-30c0.22,-2.826 -1.386,-4.162 -4,-4z"/>
   </g>
  </g>
  <g id="Glass">
   <g id="svg_11">
    <circle id="svg_12" fill="#4D4D4D" r="8" cy="29.013" cx="61"/>
   </g>
  </g>
  <g id="Glass_1_">
   <g id="svg_13">
    <circle id="svg_14" fill="#FFFFFF" r="4" cy="29.013" cx="61"/>
   </g>
  </g>
  <g id="svg_15"/>
  <g id="svg_16"/>
  <g id="svg_17"/>
  <g id="svg_18"/>
  <g id="svg_19"/>
  <g id="svg_20"/>
  <g id="svg_21"/>
  <g id="svg_22"/>
  <g id="svg_23"/>
  <g id="svg_24"/>
  <g id="svg_25"/>
  <g id="svg_26"/>
  <g id="svg_27"/>
  <g id="svg_28"/>
  <g id="svg_29"/>
 </g>
</svg>